<svg width="154" height="35" viewBox="0 0 154 35" fill="none" xmlns="http://www.w3.org/2000/svg">
<path d="M57.0856 27.3051L60.546 11.2881H66.8365C68.7461 11.2881 70.2167 11.4698 71.2477 11.8331C72.2793 12.1891 72.9936 12.6933 73.3905 13.3459C73.7953 13.9984 73.9977 14.7622 73.9977 15.6372C73.9977 16.5864 73.8144 17.4131 73.4477 18.1176C73.0811 18.8146 72.5579 19.393 71.8779 19.8528C71.1983 20.3051 70.3848 20.6425 69.4374 20.8649C68.4904 21.0874 67.4324 21.1986 66.2635 21.1986H62.9176L61.6 27.3051H57.0856ZM67.0081 27.3051L63.9374 19.9751H68.5554L71.7063 27.3051H67.0081ZM63.6739 17.7283H67.3635C67.9287 17.7283 68.4141 17.5985 68.8189 17.339C69.2311 17.0794 69.4374 16.6605 69.4374 16.0821C69.4374 15.7855 69.365 15.5408 69.2198 15.348C69.0746 15.1552 68.8223 15.0106 68.4635 14.9142C68.1047 14.8104 67.604 14.7585 66.9626 14.7585H64.3158L63.6739 17.7283ZM79.8302 27.6165C78.6388 27.6165 77.5842 27.4015 76.6676 26.9714C75.7509 26.5339 75.0332 25.9036 74.5135 25.0805C74.0016 24.25 73.7459 23.2526 73.7459 22.0885C73.7459 21.1616 73.9141 20.2754 74.25 19.4301C74.5859 18.5773 75.0713 17.8173 75.7054 17.1499C76.339 16.4825 77.1071 15.956 78.0081 15.5704C78.9174 15.1774 79.9372 14.9809 81.0676 14.9809C82.2365 14.9809 83.2143 15.1848 84.0009 15.5927C84.7953 16.0005 85.4064 16.5455 85.8342 17.2277C86.262 17.9099 86.5182 18.6774 86.6023 19.5302C86.6937 20.3755 86.6174 21.2431 86.373 22.133H76.5414L77.0112 19.9529H82.8896L82.5802 20.4534C82.6183 20.1494 82.611 19.7971 82.5572 19.3967C82.5112 18.9963 82.3739 18.6478 82.1446 18.3512C81.9231 18.0546 81.5603 17.9062 81.0563 17.9062C80.5366 17.9062 80.0976 18.0731 79.7388 18.4068C79.3794 18.7331 79.089 19.1446 78.8675 19.6414C78.6539 20.1382 78.497 20.6425 78.3977 21.1542C78.3063 21.6584 78.2603 22.0847 78.2603 22.4333C78.2603 23.0487 78.4016 23.5418 78.6842 23.9126C78.9746 24.2834 79.4254 24.4687 80.0365 24.4687C80.4564 24.4687 80.8461 24.3612 81.2054 24.1462C81.5643 23.9237 81.904 23.5344 82.2252 22.9783L86.0405 23.9571C85.4372 25.1955 84.5929 26.1149 83.5081 26.7156C82.4237 27.3162 81.1976 27.6165 79.8302 27.6165ZM93.6721 27.6165C92.5261 27.6165 91.5024 27.4015 90.6009 26.9714C89.6999 26.5339 88.989 25.9036 88.4698 25.0805C87.9501 24.2574 87.6905 23.2675 87.6905 22.1107C87.6905 21.1838 87.8587 20.294 88.1946 19.4412C88.5387 18.5885 89.0276 17.8284 89.6612 17.161C90.2953 16.4862 91.0555 15.956 91.9414 15.5704C92.8278 15.1774 93.8168 14.9809 94.9095 14.9809C95.9943 14.9809 96.9721 15.1774 97.8428 15.5704C98.7213 15.9635 99.4199 16.5085 99.9396 17.2055C100.467 17.9025 100.741 18.7071 100.764 19.6192L96.5824 20.3978C96.6127 20.0492 96.5785 19.7008 96.4793 19.3522C96.3874 18.9963 96.2192 18.7034 95.9747 18.4735C95.7303 18.2362 95.3905 18.1176 94.9554 18.1176C94.4509 18.1176 94.027 18.2733 93.6833 18.5847C93.3396 18.8962 93.061 19.2892 92.8468 19.7638C92.6332 20.231 92.4763 20.7092 92.377 21.1986C92.2856 21.6881 92.2396 22.1107 92.2396 22.4666C92.2396 23.0599 92.3731 23.5418 92.6405 23.9126C92.908 24.2834 93.3357 24.4687 93.9239 24.4687C94.4128 24.4687 94.8484 24.3204 95.2302 24.0238C95.612 23.7272 95.9557 23.2415 96.2612 22.5667L100.18 23.223C99.8057 24.3427 99.2635 25.2214 98.5531 25.8591C97.8428 26.4968 97.0557 26.9492 96.1928 27.2161C95.3372 27.4831 94.4968 27.6165 93.6721 27.6165ZM107.399 27.6165C106.306 27.6165 105.313 27.4015 104.42 26.9714C103.533 26.5413 102.831 25.9147 102.311 25.0916C101.792 24.2686 101.532 23.2749 101.532 22.1107C101.532 21.1838 101.704 20.294 102.048 19.4412C102.392 18.5885 102.877 17.8284 103.503 17.161C104.137 16.4862 104.894 15.956 105.772 15.5704C106.658 15.1774 107.64 14.9809 108.717 14.9809C109.817 14.9809 110.814 15.1997 111.707 15.6372C112.601 16.0673 113.308 16.6938 113.827 17.517C114.354 18.3327 114.618 19.3263 114.618 20.4979C114.618 21.4322 114.442 22.3257 114.091 23.1785C113.747 24.0313 113.254 24.7913 112.613 25.4587C111.971 26.1261 111.207 26.6525 110.321 27.0381C109.442 27.4237 108.468 27.6165 107.399 27.6165ZM107.514 24.4799C107.964 24.4799 108.35 24.3279 108.671 24.0238C108.999 23.7198 109.267 23.3379 109.473 22.8782C109.679 22.411 109.832 21.929 109.931 21.4322C110.038 20.9354 110.092 20.4979 110.092 20.1197C110.092 19.5042 109.966 19.0148 109.714 18.6515C109.469 18.2881 109.11 18.1065 108.636 18.1065C108.194 18.1065 107.808 18.2585 107.479 18.5625C107.159 18.8666 106.891 19.2521 106.677 19.7193C106.471 20.179 106.314 20.6573 106.207 21.1542C106.108 21.6435 106.059 22.081 106.059 22.4666C106.059 23.0747 106.181 23.5641 106.425 23.9348C106.677 24.2982 107.04 24.4799 107.514 24.4799ZM115.03 27.3051L117.631 15.2924H121.917L121.298 18.1176L121.034 18.0731C121.706 16.8792 122.39 16.0673 123.086 15.6372C123.781 15.1997 124.521 14.9809 125.308 14.9809C125.553 14.9809 125.801 14.9995 126.053 15.0365C126.305 15.0662 126.538 15.1144 126.752 15.1811L125.881 18.8628C125.644 18.7813 125.389 18.7182 125.114 18.6737C124.839 18.6218 124.575 18.5959 124.323 18.5959C123.91 18.5959 123.506 18.6663 123.108 18.8072C122.719 18.9481 122.348 19.1854 121.997 19.5191C121.653 19.8453 121.34 20.294 121.057 20.8649C120.775 21.4285 120.541 22.1404 120.359 23.0005L119.43 27.3051H115.03ZM130.419 27.6165C129.487 27.6165 128.7 27.4311 128.059 27.0604C127.417 26.6822 126.932 26.1372 126.603 25.4253C126.275 24.7135 126.11 23.857 126.11 22.8559C126.11 22.2775 126.171 21.6398 126.294 20.9428C126.416 20.2384 126.614 19.5376 126.89 18.8406C127.172 18.1435 127.55 17.5021 128.024 16.9163C128.505 16.3305 129.101 15.8633 129.811 15.5148C130.522 15.1589 131.366 14.9809 132.344 14.9809C133.444 14.9809 134.292 15.2182 134.887 15.6928C135.483 16.1599 135.884 16.8088 136.091 17.6393L135.678 17.6059L137.191 10.6208H141.591L138.795 23.5678C138.741 23.8125 138.737 23.9794 138.783 24.0683C138.829 24.1499 138.967 24.1907 139.196 24.1907H139.941L139.264 27.3051H137.592C136.43 27.3051 135.598 27.0048 135.094 26.4042C134.597 25.7961 134.467 24.9248 134.704 23.7903L134.773 23.4566L135.254 24.4465C134.826 25.5217 134.185 26.3189 133.329 26.8379C132.481 27.357 131.511 27.6165 130.419 27.6165ZM132.436 24.313C132.924 24.313 133.341 24.1833 133.684 23.9237C134.036 23.6568 134.318 23.3231 134.532 22.9227C134.754 22.5148 134.914 22.0885 135.013 21.6435C135.121 21.1986 135.174 20.7945 135.174 20.4311C135.174 19.7341 135.014 19.2002 134.693 18.8294C134.372 18.4513 133.952 18.2622 133.432 18.2622C132.951 18.2622 132.539 18.4068 132.195 18.696C131.859 18.9777 131.583 19.3374 131.37 19.7749C131.156 20.205 130.999 20.6499 130.9 21.1096C130.808 21.5694 130.763 21.9735 130.763 22.322C130.763 22.9449 130.904 23.4343 131.186 23.7903C131.477 24.1388 131.893 24.313 132.436 24.313ZM147.022 27.6165C146.304 27.6165 145.594 27.5387 144.891 27.383C144.188 27.2272 143.542 26.9937 142.954 26.6822C142.366 26.3707 141.889 25.9852 141.522 25.5254C141.155 25.0583 140.953 24.517 140.914 23.9015L144.822 23.1674C144.791 23.6123 144.963 23.9682 145.337 24.2351C145.712 24.4947 146.224 24.6245 146.873 24.6245C147.27 24.6245 147.583 24.58 147.813 24.491C148.041 24.3946 148.206 24.276 148.305 24.1351C148.412 23.9942 148.466 23.8496 148.466 23.7013C148.466 23.4566 148.34 23.2378 148.087 23.045C147.843 22.8448 147.484 22.7076 147.01 22.6335L146.231 22.5111C145.826 22.4444 145.395 22.3443 144.936 22.2108C144.478 22.0699 144.047 21.8771 143.641 21.6324C143.244 21.3803 142.916 21.054 142.656 20.6536C142.404 20.2532 142.278 19.7601 142.278 19.1743C142.278 18.3808 142.522 17.669 143.011 17.0387C143.5 16.4009 144.161 15.9004 144.994 15.5371C145.826 15.1663 146.759 14.9809 147.79 14.9809C148.698 14.9809 149.577 15.1293 150.425 15.4259C151.281 15.715 151.991 16.1303 152.556 16.6716C153.129 17.2055 153.446 17.8358 153.507 18.5625L149.657 19.3077C149.642 18.8183 149.47 18.4624 149.141 18.2399C148.821 18.0101 148.424 17.8951 147.95 17.8951C147.484 17.8951 147.156 17.9841 146.964 18.1621C146.781 18.3327 146.69 18.5254 146.69 18.7405C146.69 19.0964 146.877 19.3485 147.251 19.4968C147.633 19.6377 148.057 19.7452 148.523 19.8194L149.531 19.9751C150.425 20.116 151.197 20.4905 151.846 21.0985C152.495 21.6992 152.82 22.4852 152.82 23.4566C152.82 24.3019 152.564 25.036 152.052 25.6589C151.54 26.2818 150.845 26.7638 149.967 27.1049C149.096 27.446 148.114 27.6165 147.022 27.6165Z" fill="#DD0B38"/>
<path d="M103.644 23.0339L107.067 25.8814L110 24.6949L112.2 21.6102L111.222 17.8136H105.356L103.644 23.0339Z" fill="#DD0B38"/>
<path d="M107.573 23.5085C107.206 23.5085 106.872 23.4358 106.571 23.2904C106.273 23.145 106.037 22.9332 105.862 22.655C105.687 22.3768 105.6 22.0409 105.6 21.6473C105.6 21.334 105.658 21.0332 105.774 20.745C105.889 20.4567 106.052 20.1998 106.263 19.9742C106.476 19.7461 106.73 19.5669 107.026 19.4366C107.323 19.3037 107.654 19.2373 108.016 19.2373C108.386 19.2373 108.721 19.3112 109.021 19.4591C109.322 19.6045 109.559 19.8163 109.734 20.0945C109.911 20.3702 110 20.7062 110 21.1022C110 21.418 109.941 21.72 109.823 22.0083C109.707 22.2966 109.541 22.5535 109.326 22.7791C109.11 23.0047 108.853 23.1826 108.555 23.313C108.26 23.4433 107.932 23.5085 107.573 23.5085ZM107.611 22.4482C107.763 22.4482 107.892 22.3968 108 22.294C108.111 22.1913 108.201 22.0622 108.27 21.9068C108.339 21.7489 108.391 21.5859 108.424 21.418C108.46 21.2501 108.478 21.1022 108.478 20.9743C108.478 20.7663 108.436 20.6008 108.351 20.478C108.269 20.3552 108.148 20.2938 107.989 20.2938C107.84 20.2938 107.71 20.3452 107.6 20.448C107.492 20.5507 107.402 20.6811 107.33 20.839C107.261 20.9944 107.208 21.156 107.172 21.324C107.139 21.4894 107.122 21.6373 107.122 21.7677C107.122 21.9732 107.163 22.1387 107.245 22.2639C107.33 22.3868 107.452 22.4482 107.611 22.4482Z" fill="white"/>
<path d="M108.044 19.7119H107.556C107.016 19.7119 106.578 20.1368 106.578 20.661V22.0847C106.578 22.609 107.016 23.0339 107.556 23.0339H108.044C108.584 23.0339 109.022 22.609 109.022 22.0847V20.661C109.022 20.1368 108.584 19.7119 108.044 19.7119Z" fill="white"/>
<path d="M105.5 16.7279L104.972 17.0997C104.498 17.4327 104.393 18.0836 104.743 18.5272L105.199 19.107C105.506 19.4976 106.065 19.5946 106.503 19.3334L106.77 19.1741C107.155 18.9445 107.347 18.4955 107.243 18.0703L107.048 17.2781C106.883 16.6043 106.081 16.3195 105.5 16.7279Z" fill="white"/>
<path d="M110.538 26.2382L111.078 25.937C111.649 25.6186 111.781 24.8644 111.349 24.3959L110.869 23.8744C110.577 23.5579 110.107 23.4692 109.707 23.6549L109.426 23.7853C108.961 24.0016 108.725 24.5248 108.877 25.0024L109.099 25.6948C109.289 26.2869 109.982 26.5487 110.538 26.2382Z" fill="white"/>
<path d="M11.0117 11.9395C11.4701 11.9395 12.0645 12.0218 12.7949 12.1865C13.5254 12.3512 14.084 12.4658 14.4707 12.5303C14.8646 12.5947 15.1009 12.6484 15.1797 12.6914C15.4017 12.806 15.5127 13.1676 15.5127 13.7764C15.5127 14.8506 15.3659 15.5488 15.0723 15.8711L14.9004 15.9785C14.6784 15.9785 14.4277 15.6706 14.1484 15.0547C13.5111 13.651 12.376 12.9492 10.7432 12.9492C9.88379 12.9492 8.99577 13.2393 8.0791 13.8193C7.47754 14.1989 6.89388 14.7611 6.32812 15.5059C5.76953 16.2507 5.33626 17.1172 5.02832 18.1055C4.72038 19.0866 4.56641 20.0104 4.56641 20.877C4.56641 22.5312 4.94238 23.7988 5.69434 24.6797C6.45345 25.5605 7.49544 26.001 8.82031 26.001C9.95182 26.001 11.18 25.446 12.5049 24.3359C13.0778 23.8561 13.4036 23.6162 13.4824 23.6162C13.7331 23.6162 13.8584 23.7523 13.8584 24.0244C13.8584 24.2894 13.6829 24.7191 13.332 25.3135C12.9811 25.9079 12.6732 26.2731 12.4082 26.4092C12.1432 26.5452 11.5381 26.71 10.5928 26.9033C9.64746 27.0967 8.9707 27.1934 8.5625 27.1934H8.19727C6.51432 27.1934 5.12858 26.6276 4.04004 25.4961C2.95866 24.3646 2.41797 22.9502 2.41797 21.2529C2.41797 18.7035 3.26302 16.4906 4.95312 14.6143C5.71224 13.7764 6.62174 13.1211 7.68164 12.6484C8.7487 12.1758 9.85872 11.9395 11.0117 11.9395ZM18.2889 27.0537C17.6873 27.0537 17.3866 26.5811 17.3866 25.6357V25.4531C17.3866 25.4316 17.5978 24.7262 18.0204 23.3369C18.45 21.9404 18.6649 20.9772 18.6649 20.4473C18.6649 19.9173 18.536 19.5521 18.2782 19.3516C17.7912 18.9792 17.5477 18.7285 17.5477 18.5996C17.5477 18.2773 17.7482 17.9694 18.1493 17.6758C18.5503 17.375 18.9227 17.2246 19.2664 17.2246C19.6102 17.2246 19.8895 17.3105 20.1043 17.4824C20.3263 17.6543 20.4373 17.9121 20.4373 18.2559L20.3836 19.2441C20.3836 19.502 20.4266 19.6309 20.5125 19.6309C20.5985 19.6309 20.8563 19.391 21.286 18.9111C21.7228 18.4242 22.131 18.0374 22.5106 17.751C22.8901 17.4645 23.3449 17.3213 23.8748 17.3213C24.4048 17.3213 24.6698 17.5576 24.6698 18.0303V18.1377C24.6698 18.3597 24.5695 18.5674 24.369 18.7607C24.1756 18.9469 23.9035 19.04 23.5526 19.04L22.5106 18.8574C21.9735 18.8574 21.4041 19.5449 20.8026 20.9199C20.2082 22.2949 19.911 23.6019 19.911 24.8408L19.9325 25.1631C19.9325 25.2777 19.9325 25.3923 19.9325 25.5068C19.9325 25.9652 19.8107 26.3376 19.5672 26.624C19.3309 26.9105 18.9728 27.0537 18.493 27.0537H18.2889ZM32.8708 19.2549V18.9648C32.8708 18.707 32.7634 18.4886 32.5485 18.3096C32.3408 18.1234 32.0544 18.0303 31.6891 18.0303H31.3669C31.0016 18.0303 30.5684 18.1771 30.0671 18.4707C29.5658 18.7643 29.1361 19.1904 28.778 19.749C27.9186 21.0739 27.4889 22.4023 27.4889 23.7344V23.8418C27.4889 24.4147 27.5856 24.8874 27.779 25.2598C27.9795 25.625 28.2695 25.8076 28.6491 25.8076H28.8425C29.2149 25.8076 29.6732 25.5892 30.2175 25.1523C30.7617 24.7155 31.2022 24.2106 31.5387 23.6377C31.8825 23.0576 32.1904 22.3128 32.4626 21.4033C32.7347 20.4938 32.8708 19.7777 32.8708 19.2549ZM33.193 17.4609L34.568 17.2891C34.7829 17.2891 34.8903 17.4359 34.8903 17.7295C34.8903 18.016 34.6611 19.0758 34.2028 20.9092C33.7445 22.7425 33.5153 23.9098 33.5153 24.4111C33.5153 24.9124 33.7481 25.1631 34.2136 25.1631L34.611 25.1201C34.8975 25.1201 35.0407 25.1882 35.0407 25.3242V25.4316C35.0407 25.6966 34.7865 25.9759 34.278 26.2695C33.7767 26.556 33.3434 26.6992 32.9782 26.6992C32.613 26.6992 32.3623 26.6133 32.2262 26.4414C32.0902 26.2624 31.9613 25.9437 31.8395 25.4854L31.7536 25.0557C31.7178 24.8766 31.6856 24.7871 31.6569 24.7871C31.5925 24.7871 31.1234 25.1309 30.2497 25.8184C29.3832 26.5059 28.6097 26.8496 27.9294 26.8496H27.736C27.1345 26.8496 26.6546 26.6169 26.2966 26.1514C25.9457 25.6787 25.7702 25.0664 25.7702 24.3145V24.0889C25.7702 23.4085 25.9206 22.6387 26.2214 21.7793C26.8086 20.1107 27.8327 18.8109 29.2936 17.8799C30.0241 17.4144 30.7295 17.1816 31.4098 17.1816H31.6139C31.8145 17.1816 32.0687 17.2282 32.3766 17.3213C32.6917 17.4144 32.9639 17.4609 33.193 17.4609ZM38.3862 25.4424V25.0342C38.3862 24.54 38.551 23.5446 38.8804 22.0479C39.2098 20.5439 39.3745 19.5843 39.3745 19.1689C39.3745 18.7464 39.2349 18.4134 38.9556 18.1699C38.6763 17.9193 38.5366 17.776 38.5366 17.7402C38.5366 17.6973 38.9198 17.4036 39.6861 16.8594C39.9081 16.7018 40.2411 16.1361 40.6851 15.1621C40.9644 14.5534 41.3045 14.249 41.7056 14.249C42.0135 14.249 42.1675 14.4603 42.1675 14.8828L42.103 15.4844C42.0672 15.8281 42.0493 16.0824 42.0493 16.2471C42.0493 16.598 42.3036 16.8594 42.812 17.0312C43.5139 17.2676 43.8648 17.4717 43.8648 17.6436C43.8648 17.9801 43.4601 18.1484 42.6509 18.1484C42.0565 18.1484 41.6161 18.5674 41.3296 19.4053C40.5991 21.5967 40.2339 23.3083 40.2339 24.54C40.2339 25.113 40.4738 25.3994 40.9536 25.3994C41.0825 25.3994 41.3404 25.3278 41.7271 25.1846C42.1138 25.0342 42.4182 24.959 42.6402 24.959C42.8049 24.959 42.8872 25.0986 42.8872 25.3779C42.8872 25.6572 42.59 25.9688 41.9956 26.3125C41.1004 26.8353 40.4201 27.0967 39.9546 27.0967C39.4891 27.0967 39.1096 26.9535 38.8159 26.667C38.5295 26.3734 38.3862 25.9652 38.3862 25.4424ZM51.0345 17.8154H50.7123C50.0892 17.8154 49.4268 18.2093 48.725 18.9971C48.0303 19.7848 47.683 20.5439 47.683 21.2744L47.6937 21.3281C47.6937 21.5215 47.7617 21.6182 47.8978 21.6182H48.0267C48.8073 21.6182 49.8028 21.2887 51.013 20.6299C51.7435 20.2288 52.1087 19.7812 52.1087 19.2871V19.0938C52.1087 18.707 52.0049 18.3991 51.7972 18.1699C51.5895 17.9336 51.3353 17.8154 51.0345 17.8154ZM45.5238 23.7451V23.3369C45.5309 22.4704 45.6992 21.6504 46.0287 20.877C46.7233 19.2585 47.7761 18.1019 49.1869 17.4072C49.8314 17.085 50.4795 16.9238 51.1312 16.9238H51.3353C52.0944 16.9238 52.696 17.1279 53.14 17.5361C53.5768 17.9443 53.7953 18.4421 53.7953 19.0293C53.7953 19.8385 53.4981 20.4473 52.9037 20.8555C52.03 21.4714 50.7946 21.901 49.1976 22.1445C48.5173 22.252 48.0733 22.3594 47.8656 22.4668C47.5433 22.6315 47.3822 23.0397 47.3822 23.6914C47.3822 24.3431 47.5827 24.8659 47.9837 25.2598C48.392 25.6465 48.9362 25.8398 49.6166 25.8398C50.0033 25.8398 50.4473 25.7181 50.9486 25.4746C51.0202 25.4388 51.2315 25.3135 51.5824 25.0986C51.9333 24.8838 52.1696 24.7764 52.2914 24.7764C52.499 24.7764 52.6029 24.873 52.6029 25.0664C52.6029 25.4674 52.1517 25.915 51.2494 26.4092C50.347 26.8962 49.5449 27.1396 48.8431 27.1396H48.4242C47.6436 27.1396 46.9632 26.8138 46.3832 26.1621C45.8102 25.5104 45.5238 24.7048 45.5238 23.7451Z" fill="#2064B8"/>
</svg>
