<svg width="17" height="17" viewBox="0 0 17 17" fill="none" xmlns="http://www.w3.org/2000/svg">
<g clip-path="url(#clip0_36_173)">
<path d="M15.5834 8.5C15.5834 12.412 12.412 15.5833 8.50002 15.5833M15.5834 8.5C15.5834 4.58798 12.412 1.41667 8.50002 1.41667M15.5834 8.5H1.41669M8.50002 15.5833C4.588 15.5833 1.41669 12.412 1.41669 8.5M8.50002 15.5833C10.2718 13.6437 11.2786 11.1265 11.3334 8.5C11.2786 5.87352 10.2718 3.35633 8.50002 1.41667M8.50002 15.5833C6.72828 13.6437 5.7214 11.1265 5.66669 8.5C5.7214 5.87352 6.72828 3.35633 8.50002 1.41667M1.41669 8.5C1.41669 4.58798 4.588 1.41667 8.50002 1.41667" stroke="white" stroke-linecap="round" stroke-linejoin="round"/>
</g>
<defs>
<clipPath id="clip0_36_173">
<rect width="17" height="17" fill="white"/>
</clipPath>
</defs>
</svg>
