<svg width="20" height="19" viewBox="0 0 20 19" fill="none" xmlns="http://www.w3.org/2000/svg">
<path d="M17.3667 3.64959C16.9411 3.24505 16.4357 2.92414 15.8795 2.70519C15.3233 2.48625 14.7271 2.37356 14.1251 2.37356C13.523 2.37356 12.9268 2.48625 12.3706 2.70519C11.8144 2.92414 11.309 3.24505 10.8834 3.64959L10.0001 4.48875L9.11673 3.64959C8.25698 2.83283 7.09092 2.37398 5.87506 2.37398C4.6592 2.37398 3.49314 2.83283 2.63339 3.64959C1.77365 4.46634 1.29065 5.5741 1.29065 6.72917C1.29065 7.88424 1.77365 8.992 2.63339 9.80875L10.0001 16.8071L17.3667 9.80875C17.7926 9.40441 18.1304 8.92431 18.3608 8.39591C18.5913 7.8675 18.7099 7.30114 18.7099 6.72917C18.7099 6.1572 18.5913 5.59084 18.3608 5.06243C18.1304 4.53403 17.7926 4.05394 17.3667 3.64959Z" stroke="black" stroke-width="2" stroke-linecap="round" stroke-linejoin="round"/>
</svg>
