<svg width="19" height="18" viewBox="0 0 19 18" fill="none" xmlns="http://www.w3.org/2000/svg">
<g clip-path="url(#clip0_103_363)">
<path d="M0.791626 0.75H3.95829L6.07996 10.7925C6.15235 11.1378 6.35064 11.448 6.6401 11.6687C6.92956 11.8895 7.29176 12.0067 7.66329 12H15.3583C15.7298 12.0067 16.092 11.8895 16.3815 11.6687C16.6709 11.448 16.8692 11.1378 16.9416 10.7925L18.2083 4.5H4.74996M7.91663 15.75C7.91663 16.1642 7.56218 16.5 7.12496 16.5C6.68773 16.5 6.33329 16.1642 6.33329 15.75C6.33329 15.3358 6.68773 15 7.12496 15C7.56218 15 7.91663 15.3358 7.91663 15.75ZM16.625 15.75C16.625 16.1642 16.2705 16.5 15.8333 16.5C15.3961 16.5 15.0416 16.1642 15.0416 15.75C15.0416 15.3358 15.3961 15 15.8333 15C16.2705 15 16.625 15.3358 16.625 15.75Z" stroke="black" stroke-width="2" stroke-linecap="round" stroke-linejoin="round"/>
</g>
<defs>
<clipPath id="clip0_103_363">
<rect width="19" height="18" fill="white"/>
</clipPath>
</defs>
</svg>
