<svg width="17" height="17" viewBox="0 0 17 17" fill="none" xmlns="http://www.w3.org/2000/svg">
<path d="M11.3333 11.3333V2.125H0.708344V11.3333H11.3333ZM11.3333 11.3333H16.2917V7.79167L14.1667 5.66667H11.3333L11.3333 11.3333ZM5.66668 13.1042C5.66668 14.0822 4.87385 14.875 3.89584 14.875C2.91784 14.875 2.12501 14.0822 2.12501 13.1042C2.12501 12.1262 2.91784 11.3333 3.89584 11.3333C4.87385 11.3333 5.66668 12.1262 5.66668 13.1042ZM14.875 13.1042C14.875 14.0822 14.0822 14.875 13.1042 14.875C12.1262 14.875 11.3333 14.0822 11.3333 13.1042C11.3333 12.1262 12.1262 11.3333 13.1042 11.3333C14.0822 11.3333 14.875 12.1262 14.875 13.1042Z" stroke="white" stroke-linecap="round" stroke-linejoin="round"/>
</svg>
